<svg id="Capa_1" enable-background="new 0 0 512 512" height="512" viewBox="0 0 512 512" width="512" xmlns="http://www.w3.org/2000/svg"><g><path d="m477.467.057c-18.215 0-33.033 14.812-33.033 33.017v173.086h-22.696v-87.85c0-19.059-6.121-26.82-12.939-33.708-2.699-2.726-4.034-4.075-4.654-6.998v-12.018-33.448c0-9.562-7.79-17.342-17.366-17.342h-25.441c-9.576 0-17.366 7.779-17.366 17.342v33.448 12.018c-.62 2.923-1.955 4.271-4.654 6.998-6.818 6.888-12.939 14.649-12.939 33.708v87.85h-22.724v-87.85c0-19.064-6.117-26.825-12.933-33.712-2.698-2.728-4.034-4.078-4.661-7.002v-12.01-33.448c0-9.562-7.777-17.342-17.338-17.342h-25.47c-9.561 0-17.338 7.779-17.338 17.342v33.448 12.018c-.62 2.923-1.955 4.271-4.654 6.998-6.818 6.888-12.939 14.649-12.939 33.708v87.85h-22.724v-87.85c0-19.064-6.117-26.825-12.933-33.712-2.698-2.728-4.034-4.078-4.661-7.002v-12.01-33.448c0-9.562-7.777-17.342-17.338-17.342h-25.47c-9.561 0-17.338 7.779-17.338 17.342v33.448 12.018c-.62 2.923-1.955 4.271-4.654 6.998-6.818 6.888-12.939 14.649-12.939 33.708v87.85h-22.727v-173.143c0-18.205-14.806-33.017-33.005-33.017-18.215 0-33.033 14.812-33.033 33.017v468.926c0 5.523 4.478 10 10 10h46.038c5.522 0 10-4.477 10-10v-29.968h376.896v30.025c0 5.523 4.478 10 10 10h46.066c5.522 0 10-4.477 10-10v-195.984c0-5.523-4.478-10-10-10s-10 4.477-10 10v185.984h-26.066v-458.926c0-7.178 5.847-13.017 13.033-13.017s13.033 5.839 13.033 13.017v183.143c0 5.523 4.478 10 10 10s10-4.477 10-10v-183.143c0-18.206-14.818-33.017-33.033-33.017zm-429.929 491.886h-26.038v-458.926c0-7.178 5.847-13.017 13.033-13.017 7.171 0 13.005 5.839 13.005 13.017zm316.432-457.147h20.174v20.79h-20.174zm-10.442 63.877c3.686-3.723 8.733-8.821 10.312-18.56.24-1.479.129-3.033.129-4.527h20.174c0 .975-.013 1.951 0 2.926.033 2.592.782 5.129 1.68 7.542 1.841 4.944 5.091 8.912 8.761 12.619 3.559 3.595 6.265 6.354 6.968 14.881h-54.992c.703-8.527 3.409-11.286 6.968-14.881zm-7.152 34.881h55.361v26.544h-55.361zm0 46.544h55.361v26.062h-55.361zm-100.463-145.302h20.146v20.79h-20.146zm-10.441 63.877c2.318-2.341 4.55-4.753 6.29-7.566 1.084-1.752 1.975-3.621 2.657-5.565.774-2.207 1.494-4.675 1.494-7.029v-2.926h20.146v2.926c0 2.357.726 4.829 1.504 7.037.684 1.941 1.575 3.807 2.659 5.557 1.739 2.809 3.969 5.219 6.283 7.558 3.557 3.596 6.263 6.354 6.964 14.889h-54.964c.701-8.527 3.407-11.286 6.967-14.881zm-7.153 34.881h55.333v26.544h-55.333zm0 46.544h55.333v26.062h-55.333zm-100.463-145.302h20.146v20.79h-20.146zm-10.441 63.877c2.318-2.341 4.55-4.753 6.29-7.566 1.084-1.752 1.975-3.621 2.657-5.565.774-2.207 1.494-4.675 1.494-7.029v-2.926h20.146v2.926c0 2.357.726 4.829 1.504 7.037.684 1.941 1.575 3.807 2.659 5.557 1.739 2.809 3.969 5.219 6.283 7.558 3.557 3.596 6.263 6.354 6.964 14.889h-54.964c.702-8.527 3.408-11.286 6.967-14.881zm-7.152 34.881h55.333v26.544h-55.333zm0 46.544h55.333v26.062h-55.333zm55.333 271.878h-55.333v-24.617h55.333zm0-44.617h-55.333v-26.544h55.333zm-17.594-84.511v2.926c0 .542.044 1.083.132 1.618 1.594 9.724 6.634 14.816 10.313 18.535 3.558 3.595 6.263 6.354 6.964 14.889h-54.964c.702-8.526 3.408-11.285 6.968-14.88 3.686-3.723 8.733-8.821 10.312-18.561.086-.529.129-1.064.129-1.601v-2.926zm-20.146-20v-20.79h20.146v20.79zm155.796 149.128h-55.333v-24.617h55.333zm0-44.617h-55.333v-26.544h55.333zm-17.593-84.511v2.926c0 .542.044 1.083.132 1.618 1.594 9.724 6.634 14.816 10.313 18.535 3.558 3.595 6.263 6.354 6.964 14.889h-54.964c.702-8.526 3.408-11.285 6.968-14.88 3.686-3.723 8.733-8.821 10.312-18.561.086-.529.129-1.064.129-1.601v-2.926zm-20.146-20v-20.79h20.146v20.79zm155.824 149.128h-55.361v-24.617h55.361zm0-44.617h-55.361v-26.544h55.361zm-37.767-84.511h20.174v2.926c0 3.818 1.536 7.862 3.332 11.179 1.837 3.392 4.411 6.257 7.109 8.982 3.559 3.595 6.265 6.354 6.968 14.88h-54.992c.233-2.832.72-5.706 1.917-8.304 2.053-4.459 6.262-7.549 9.292-11.307 3.231-4.006 5.249-8.756 6.071-13.83.24-1.479.129-3.033.129-4.526zm0-20v-20.79h20.174v20.79zm80.464 149.128h-22.696v-86.404c0-19.059-6.121-26.82-12.939-33.708-2.699-2.727-4.034-4.075-4.654-6.998v-45.466c0-9.562-7.79-17.341-17.366-17.341h-25.441c-9.576 0-17.366 7.779-17.366 17.341v45.466c-.62 2.923-1.955 4.271-4.654 6.998-6.818 6.888-12.939 14.648-12.939 33.708v86.404h-22.724v-86.404c0-19.064-6.117-26.826-12.933-33.712-2.698-2.728-4.034-4.078-4.661-7.002v-12.009-33.448c0-9.562-7.777-17.341-17.338-17.341h-25.47c-9.561 0-17.338 7.779-17.338 17.341v33.448 12.018c-.62 2.923-1.955 4.271-4.654 6.998-6.818 6.888-12.939 14.648-12.939 33.708v86.404h-22.724v-86.404c0-19.064-6.117-26.826-12.933-33.712-2.698-2.728-4.034-4.078-4.661-7.002v-12.009-33.448c0-9.562-7.777-17.341-17.338-17.341h-25.47c-9.561 0-17.338 7.779-17.338 17.341v33.448 12.018c-.62 2.923-1.955 4.271-4.654 6.998-6.818 6.888-12.939 14.648-12.939 33.708v86.404h-22.727v-225.818h376.896z"/><path d="m500.5 251.116c-5.522 0-10 4.477-10 10v.057c0 5.523 4.478 9.972 10 9.972s10-4.506 10-10.029-4.478-10-10-10z"/></g></svg>